<?xml version="1.0" encoding="iso-8859-1"?>
<!-- Generator: Adobe Illustrator 22.0.1, SVG Export Plug-In . SVG Version: 6.00 Build 0)  -->
<svg version="1.1" xmlns="http://www.w3.org/2000/svg" xmlns:xlink="http://www.w3.org/1999/xlink" x="0px" y="0px"
	 viewBox="0 0 338.25 180" style="enable-background:new 0 0 338.25 180;" xml:space="preserve">
<g id="&#x421;&#x43B;&#x43E;&#x439;_2">
</g>
<g id="Layer_1">
	<polygon style="fill:#333333;" points="153.455,119.538 191.981,119.538 238.211,3.962 199.686,3.962 	"/>
	<polygon style="opacity:0.5;fill:#333333;" points="203.455,119.538 241.981,119.538 288.211,3.962 249.686,3.962 	"/>
	<polygon style="opacity:0.2;fill:#333333;" points="251.789,119.538 290.314,119.538 336.545,3.962 298.019,3.962 	"/>
	<polygon style="fill:#333333;" points="184.711,119.538 146.186,119.538 99.955,3.962 138.481,3.962 	"/>
	<polygon style="opacity:0.5;fill:#333333;" points="134.711,119.538 96.186,119.538 49.955,3.962 88.481,3.962 	"/>
	<polygon style="opacity:0.2;fill:#333333;" points="86.378,119.538 47.853,119.538 1.622,3.962 40.147,3.962 	"/>
	<g>
		<path style="fill:#333333;" d="M72.604,176.759l-12.012-35.01h12.012l6.25,22.51l6.25-22.51h11.987l-11.987,35.01H72.604z"/>
		<path style="fill:#333333;" d="M144.379,141.749l-12.5,22.51v12.5h-11.23v-12.5l-12.5-22.51h11.987l6.006,12.012h0.244
			l6.006-12.012H144.379z"/>
		<path style="fill:#333333;" d="M163.827,170.021l-2.002,6.738h-11.987l12.744-35.01h12.5l12.744,35.01h-12.012l-1.978-6.738
			H163.827z M168.832,152.76l-2.515,8.74h5.005L168.832,152.76z"/>
		<path style="fill:#333333;" d="M214.617,141.749c5.437,0,9.961,1.709,13.574,5.127s5.42,7.544,5.42,12.378
			s-1.807,8.96-5.42,12.378s-8.138,5.127-13.574,5.127h-13.989v-35.01H214.617z M211.858,151.759v14.99h2.759
			c2.229,0,4.077-0.716,5.542-2.148s2.197-3.215,2.197-5.347s-0.732-3.914-2.197-5.347s-3.313-2.148-5.542-2.148H211.858z"/>
		<path style="fill:#333333;" d="M262.679,141.749c5.437,0,9.961,1.709,13.574,5.127s5.42,7.544,5.42,12.378
			s-1.807,8.96-5.42,12.378s-8.138,5.127-13.574,5.127h-13.989v-35.01H262.679z M259.92,151.759v14.99h2.759
			c2.229,0,4.077-0.716,5.542-2.148s2.197-3.215,2.197-5.347s-0.732-3.914-2.197-5.347s-3.313-2.148-5.542-2.148H259.92z"/>
	</g>
</g>
</svg>
